<svg xmlns="http://www.w3.org/2000/svg" width="782" height="547" viewBox="0 0 782 547"><defs><linearGradient id="a" x1="50%" x2="50%" y1="100%" y2="-11.281%"><stop offset="0%" stop-color="#70B"/><stop offset="52.41%" stop-color="#00008B"/><stop offset="100%" stop-color="#00003B"/></linearGradient><linearGradient id="b" x1="59.433%" x2="39.716%" y1="3.102%" y2="101.142%"><stop offset="0%" stop-color="#88CFDA"/><stop offset=".834%" stop-color="#89CFD9"/><stop offset="47.84%" stop-color="#C8D9BB"/><stop offset="82.18%" stop-color="#F0DFA7"/><stop offset="100%" stop-color="#FFE1A0"/></linearGradient><linearGradient id="c" x1="-.002%" x2="100%" y1="50%" y2="50%"><stop offset="0%" stop-color="#70B"/><stop offset="100%" stop-color="#00008B"/><stop offset="100%"/></linearGradient><linearGradient id="d" x1="78.268%" x2="20.723%" y1="40.668%" y2="44.526%"><stop offset="0%" stop-color="#7102A2"/><stop offset="100%" stop-color="#080E83"/></linearGradient><linearGradient id="e" x1="-.001%" x2="100%" y1="49.999%" y2="49.999%"><stop offset="0%" stop-color="#70B"/><stop offset="100%" stop-color="#00008B"/><stop offset="100%"/></linearGradient><linearGradient id="f" x1=".003%" x2="100.007%" y1="50%" y2="50%"><stop offset="0%" stop-color="#7A9FFF"/><stop offset="78.61%" stop-color="#FFF"/></linearGradient><linearGradient id="g" x1=".007%" x2="100.012%" y1="50%" y2="50%"><stop offset="0%" stop-color="#7A9FFF"/><stop offset="78.61%" stop-color="#FFF"/></linearGradient><linearGradient id="h" x1="82.685%" x2="34.722%" y1="30.73%" y2="70.131%"><stop offset="0%" stop-color="#270036"/><stop offset="59.36%" stop-color="#4F008B"/><stop offset="100%" stop-color="#4C24B1"/></linearGradient><linearGradient id="i" x1="16.575%" x2="57.686%" y1="33.142%" y2="62.845%"><stop offset="0%" stop-color="#270036"/><stop offset="59.36%" stop-color="#4F008B"/><stop offset="100%" stop-color="#4C24B1"/></linearGradient><linearGradient id="j" x1="49.988%" x2="49.988%" y1="-10.024%" y2="118.23%"><stop offset="0%" stop-color="#7633FF"/><stop offset="15.85%" stop-color="#7137FF"/><stop offset="35.35%" stop-color="#6243FF"/><stop offset="56.76%" stop-color="#4957FF"/><stop offset="79.37%" stop-color="#2672FF"/><stop offset="100%" stop-color="#0090FF"/></linearGradient><linearGradient id="k" x1="50.013%" x2="50.013%" y1="25.005%" y2="106.842%"><stop offset="0%" stop-color="#009AFF"/><stop offset="100%" stop-color="#FFF"/></linearGradient><linearGradient id="l" x1="50%" x2="50%" y1="-10.047%" y2="118.233%"><stop offset="0%" stop-color="#009AFF"/><stop offset="100%" stop-color="#FFF"/></linearGradient><linearGradient id="m" x1="49.998%" x2="49.998%" y1="-10.049%" y2="118.262%"><stop offset="0%" stop-color="#009AFF"/><stop offset="100%" stop-color="#FFF"/></linearGradient><linearGradient id="n" x1="-9.218%" x2="103.274%" y1="65.046%" y2="33.727%"><stop offset="0%" stop-color="#009AFF"/><stop offset="100%" stop-color="#FFF"/></linearGradient><linearGradient id="o" x1="106.436%" x2="3.371%" y1="60.619%" y2="37.863%"><stop offset="0%" stop-color="#009AFF"/><stop offset="100%" stop-color="#FFF"/></linearGradient><linearGradient id="p" x1="-.004%" x2="99.992%" y1="49.993%" y2="49.993%"><stop offset="0%" stop-color="#270036"/><stop offset="59.36%" stop-color="#4F008B"/><stop offset="100%" stop-color="#4C24B1"/></linearGradient><linearGradient id="r" x1="-.047%" x2="99.982%" y1="49.981%" y2="49.981%"><stop offset="0%" stop-color="#009AFF"/><stop offset="100%" stop-color="#FFF"/></linearGradient><linearGradient id="s" x1="-.002%" x2="100.028%" y1="49.981%" y2="49.981%"><stop offset="0%" stop-color="#009AFF"/><stop offset="100%" stop-color="#FFF"/></linearGradient><linearGradient id="t" x1=".075%" x2="100.096%" y1="50.024%" y2="50.024%"><stop offset="0%" stop-color="#009AFF"/><stop offset="100%" stop-color="#FFF"/></linearGradient><linearGradient id="u" x1=".08%" x2="99.922%" y1="50.02%" y2="50.02%"><stop offset="0%" stop-color="#009AFF"/><stop offset="100%" stop-color="#FFF"/></linearGradient><linearGradient id="v" x1="-.019%" x2="99.982%" y1="49.971%" y2="49.971%"><stop offset="0%" stop-color="#361A31"/><stop offset="51.34%" stop-color="#3B1868"/><stop offset="100%" stop-color="#1D0038"/></linearGradient><linearGradient id="w" x1="39.42%" x2="49.81%" y1="212.225%" y2="52.92%"><stop offset="0%" stop-color="#1DACFF"/><stop offset="11.2%" stop-color="#20A9FB"/><stop offset="22.63%" stop-color="#28A0EF"/><stop offset="34.18%" stop-color="#3690DA"/><stop offset="45.8%" stop-color="#497BBE"/><stop offset="57.37%" stop-color="#625F99"/><stop offset="58.53%" stop-color="#655C95"/><stop offset="63.67%" stop-color="#6F5F91"/><stop offset="72.3%" stop-color="#896886"/><stop offset="83.36%" stop-color="#B37774"/><stop offset="96.28%" stop-color="#ED8C5C"/><stop offset="100%" stop-color="#FF9254"/></linearGradient><linearGradient id="x" x1=".013%" x2="100.013%" y1="49.986%" y2="49.986%"><stop offset="0%" stop-color="#361A31"/><stop offset="51.34%" stop-color="#3B1868"/><stop offset="100%" stop-color="#1D0038"/></linearGradient><linearGradient id="y" x1="38.897%" x2="49.286%" y1="220.129%" y2="60.827%"><stop offset="0%" stop-color="#1DACFF"/><stop offset="11.2%" stop-color="#20A9FB"/><stop offset="22.63%" stop-color="#28A0EF"/><stop offset="34.18%" stop-color="#3690DA"/><stop offset="45.8%" stop-color="#497BBE"/><stop offset="57.37%" stop-color="#625F99"/><stop offset="58.53%" stop-color="#655C95"/><stop offset="63.67%" stop-color="#6F5F91"/><stop offset="72.3%" stop-color="#896886"/><stop offset="83.36%" stop-color="#B37774"/><stop offset="96.28%" stop-color="#ED8C5C"/><stop offset="100%" stop-color="#FF9254"/></linearGradient><linearGradient id="z" x1="49.918%" x2="50.053%" y1="2.893%" y2="98.554%"><stop offset="0%" stop-color="#A1BAFF"/><stop offset="43.32%" stop-color="#FFF"/></linearGradient><linearGradient id="A" x1="51.387%" x2="48.487%" y1="51.653%" y2="48.753%"><stop offset="0%" stop-color="#1DACFF"/><stop offset="11.2%" stop-color="#20A9FB"/><stop offset="22.63%" stop-color="#28A0EF"/><stop offset="34.18%" stop-color="#3690DA"/><stop offset="45.8%" stop-color="#497BBE"/><stop offset="57.37%" stop-color="#625F99"/><stop offset="58.53%" stop-color="#655C95"/><stop offset="63.67%" stop-color="#6F5F91"/><stop offset="72.3%" stop-color="#896886"/><stop offset="83.36%" stop-color="#B37774"/><stop offset="96.28%" stop-color="#ED8C5C"/><stop offset="100%" stop-color="#FF9254"/></linearGradient><linearGradient id="B" x1="54.024%" x2="45.724%" y1="57.303%" y2="44.551%"><stop offset="0%" stop-color="#1DACFF"/><stop offset="11.2%" stop-color="#20A9FB"/><stop offset="22.63%" stop-color="#28A0EF"/><stop offset="34.18%" stop-color="#3690DA"/><stop offset="45.8%" stop-color="#497BBE"/><stop offset="57.37%" stop-color="#625F99"/><stop offset="58.53%" stop-color="#655C95"/><stop offset="63.67%" stop-color="#6F5F91"/><stop offset="72.3%" stop-color="#896886"/><stop offset="83.36%" stop-color="#B37774"/><stop offset="96.28%" stop-color="#ED8C5C"/><stop offset="100%" stop-color="#FF9254"/></linearGradient><linearGradient id="C" x1="42.1%" x2="57.284%" y1="-23.373%" y2="117.463%"><stop offset="0%" stop-color="#090000"/><stop offset="43.32%" stop-color="#FFF"/><stop offset="100%"/></linearGradient><linearGradient id="D" x1="36.557%" x2="70.7%" y1="75.844%" y2="23.75%"><stop offset="0%" stop-color="#270036"/><stop offset="59.36%" stop-color="#22003D"/><stop offset="100%" stop-color="#272454"/></linearGradient><linearGradient id="E" x1="45.47%" x2="55.135%" y1="11.267%" y2="104.825%"><stop offset="0%" stop-color="#311842"/><stop offset="46.11%" stop-color="#190C4B"/><stop offset="100%" stop-color="#000054"/></linearGradient><linearGradient id="F" x1="16.557%" x2="67.127%" y1="68.811%" y2="40.377%"><stop offset="0%" stop-color="#270036"/><stop offset="59.36%" stop-color="#4F008B"/><stop offset="100%" stop-color="#4C24B1"/></linearGradient><linearGradient id="G" x1="-.012%" x2="99.985%" y1="49.992%" y2="49.992%"><stop offset="0%" stop-color="#311842"/><stop offset="46.11%" stop-color="#190C4B"/><stop offset="100%" stop-color="#000054"/></linearGradient><linearGradient id="H" x1="55.027%" x2="46.689%" y1="61.037%" y2="43.252%"><stop offset="0%" stop-color="#1DACFF"/><stop offset="11.2%" stop-color="#20A9FB"/><stop offset="22.63%" stop-color="#28A0EF"/><stop offset="34.18%" stop-color="#3690DA"/><stop offset="45.8%" stop-color="#497BBE"/><stop offset="57.37%" stop-color="#625F99"/><stop offset="58.53%" stop-color="#655C95"/><stop offset="63.67%" stop-color="#6F5F91"/><stop offset="72.3%" stop-color="#896886"/><stop offset="83.36%" stop-color="#B37774"/><stop offset="96.28%" stop-color="#ED8C5C"/><stop offset="100%" stop-color="#FF9254"/></linearGradient><linearGradient id="I" x1="47.576%" x2="55.145%" y1="9.682%" y2="96.997%"><stop offset="0%" stop-color="#090000"/><stop offset="43.32%" stop-color="#FFF"/><stop offset="100%"/></linearGradient><linearGradient id="J" x1="52.545%" x2="49.352%" y1="52.578%" y2="48.579%"><stop offset="0%" stop-color="#1DACFF"/><stop offset="11.2%" stop-color="#20A9FB"/><stop offset="22.63%" stop-color="#28A0EF"/><stop offset="34.18%" stop-color="#3690DA"/><stop offset="45.8%" stop-color="#497BBE"/><stop offset="57.37%" stop-color="#625F99"/><stop offset="58.53%" stop-color="#655C95"/><stop offset="63.67%" stop-color="#6F5F91"/><stop offset="72.3%" stop-color="#896886"/><stop offset="83.36%" stop-color="#B37774"/><stop offset="96.28%" stop-color="#ED8C5C"/><stop offset="100%" stop-color="#FF9254"/></linearGradient><linearGradient id="K" x1="57.748%" x2="48.391%" y1="61.993%" y2="44.957%"><stop offset="0%" stop-color="#1DACFF"/><stop offset="11.2%" stop-color="#20A9FB"/><stop offset="22.63%" stop-color="#28A0EF"/><stop offset="34.18%" stop-color="#3690DA"/><stop offset="45.8%" stop-color="#497BBE"/><stop offset="57.37%" stop-color="#625F99"/><stop offset="58.53%" stop-color="#655C95"/><stop offset="63.67%" stop-color="#6F5F91"/><stop offset="72.3%" stop-color="#896886"/><stop offset="83.36%" stop-color="#B37774"/><stop offset="96.28%" stop-color="#ED8C5C"/><stop offset="100%" stop-color="#FF9254"/></linearGradient><linearGradient id="L" x1="42.284%" x2="57.361%" y1="1.538%" y2="89.271%"><stop offset="0%" stop-color="#090000"/><stop offset="43.32%" stop-color="#FFF"/><stop offset="100%"/></linearGradient><linearGradient id="M" x1="109.396%" x2="-11.868%" y1="73.874%" y2="21.476%"><stop offset="0%" stop-color="#270036"/><stop offset="48.66%" stop-color="#22003D"/><stop offset="100%" stop-color="#424577"/></linearGradient><linearGradient id="N" x1="45.685%" x2="50.686%" y1="9.429%" y2="84.868%"><stop offset="0%" stop-color="#311842"/><stop offset="46.11%" stop-color="#190C4B"/><stop offset="100%" stop-color="#000054"/></linearGradient><linearGradient id="O" x1="52.22%" x2="43.977%" y1="52.23%" y2="41.244%"><stop offset="0%" stop-color="#270036"/><stop offset="59.36%" stop-color="#4F008B"/><stop offset="100%" stop-color="#4C24B1"/></linearGradient><linearGradient id="P" x1="101.275%" x2="-5.871%" y1="42.506%" y2="53.615%"><stop offset="0%" stop-color="#311842"/><stop offset="46.11%" stop-color="#190C4B"/><stop offset="100%" stop-color="#000054"/></linearGradient><linearGradient id="Q" x1="57.089%" x2="45.492%" y1="61.18%" y2="42.217%"><stop offset="0%" stop-color="#1DACFF"/><stop offset="11.2%" stop-color="#20A9FB"/><stop offset="22.63%" stop-color="#28A0EF"/><stop offset="34.18%" stop-color="#3690DA"/><stop offset="45.8%" stop-color="#497BBE"/><stop offset="57.37%" stop-color="#625F99"/><stop offset="58.53%" stop-color="#655C95"/><stop offset="63.67%" stop-color="#6F5F91"/><stop offset="72.3%" stop-color="#896886"/><stop offset="83.36%" stop-color="#B37774"/><stop offset="96.28%" stop-color="#ED8C5C"/><stop offset="100%" stop-color="#FF9254"/></linearGradient><linearGradient id="R" x1="41.341%" x2="54.919%" y1=".9%" y2="94.422%"><stop offset="0%" stop-color="#1DACFF"/><stop offset="11.2%" stop-color="#20A9FB"/><stop offset="22.63%" stop-color="#28A0EF"/><stop offset="34.18%" stop-color="#3690DA"/><stop offset="45.8%" stop-color="#497BBE"/><stop offset="57.37%" stop-color="#625F99"/><stop offset="58.53%" stop-color="#655C95"/><stop offset="63.67%" stop-color="#6F5F91"/><stop offset="72.3%" stop-color="#896886"/><stop offset="83.36%" stop-color="#B37774"/><stop offset="96.28%" stop-color="#ED8C5C"/><stop offset="100%" stop-color="#FF9254"/></linearGradient><radialGradient id="q" cx="49.969%" cy="50.017%" r="59.577%" fx="49.969%" fy="50.017%" gradientTransform="matrix(.73837 0 0 1 .13 0)"><stop offset="0%" stop-color="#A6FFFF"/><stop offset="19.88%" stop-color="#A4FDFF"/><stop offset="31.25%" stop-color="#9FF4FF"/><stop offset="40.47%" stop-color="#95E6FF"/><stop offset="48.55%" stop-color="#87D3FF"/><stop offset="55.87%" stop-color="#76B9FF"/><stop offset="62.55%" stop-color="#609AFF"/><stop offset="65.24%" stop-color="#568BFF"/></radialGradient></defs><g fill="none" fill-rule="nonzero"><g transform="translate(11)"><path fill="url(#a)" d="M736.79,542.13 C736.79,542.13 817.58,437.82 728.12,348.4 C670.2,290.51 652.46,278.79 645.38,248.5 C630.16,183.34 574.6,0.24 412.97,0.24 C139.75,0.24 117.17,281.09 117.17,281.09 C117.17,281.09 38.99,296.14 9.88,399.71 C-17.7,497.85 21.44,546.95 21.44,546.95 L736.79,542.13 Z"/><g transform="translate(259 25)"><g fill="#FFF"><circle cx="114.53" cy="2.86" r="1.87"/><path d="M182.47 59.01C182.47 59.52 182.06 59.93 181.55 59.93 181.04 59.93 180.63 59.52 180.63 59.01 180.63 58.5 181.04 58.09 181.55 58.09 182.06 58.09 182.47 58.5 182.47 59.01zM72.43 74.82C72.43 76.22 71.3 77.35 69.9 77.35 68.5 77.35 67.37 76.22 67.37 74.82 67.37 73.42 68.5 72.29 69.9 72.29 71.29 72.29 72.43 73.43 72.43 74.82zM4.53 63.07C4.53 64.14 3.66 65.01 2.59 65.01 1.52 65.01.65 64.14.65 63.07.65 62 1.52 61.13 2.59 61.13 3.66 61.12 4.53 61.99 4.53 63.07zM174.28 7.81C174.28 8.79 173.49 9.58 172.51 9.58 171.53 9.58 170.74 8.79 170.74 7.81 170.74 6.83 171.53 6.04 172.51 6.04 173.48 6.04 174.28 6.84 174.28 7.81z"/></g><path fill="url(#b)" d="M210.88,73.59 C225.11,87.89 248.24,87.95 262.54,73.72 C276.84,59.49 276.9,36.37 262.67,22.06 C248.44,7.76 225.31,7.7 211.01,21.93 C196.71,36.16 196.65,59.29 210.88,73.59 Z"/></g></g><g transform="translate(214 53)"><path fill="url(#c)" d="M372.94,90.81 L187.42,0.28 L186.54,0.28 L1.02,90.81 C1.02,90.81 -0.66,172.4 4.93,216.54 C11.14,265.58 35.11,360.15 90.43,416.59 C145.75,473.03 186.54,481.41 186.54,481.41 L187.42,481.41 C187.42,481.41 228.21,473.03 283.53,416.59 C338.85,360.15 362.82,265.58 369.03,216.54 C374.62,172.39 372.94,90.81 372.94,90.81 Z"/><path fill="url(#d)" d="M340.94,109.06 L185.36,33.14 L184.62,33.14 L29.04,109.06 C29.04,109.06 27.63,177.48 32.32,214.5 C37.53,255.63 57.63,334.94 104.02,382.27 C150.41,429.6 184.62,436.63 184.62,436.63 L185.36,436.63 C185.36,436.63 219.57,429.6 265.96,382.27 C312.35,334.94 332.45,255.63 337.66,214.5 C342.35,177.48 340.94,109.06 340.94,109.06 Z"/><g transform="translate(62 80)"><path fill="url(#e)" d="M23.14,17.76 C23.14,17.76 62.44,0.8 118.41,0.8 C174.39,0.8 216.51,14.65 225.84,21.16 C235.17,27.66 238,42.65 240.26,62.72 C242.52,82.79 249.02,150.08 241.67,186.83 C234.32,223.58 204.07,262.6 187.39,279.28 C170.71,295.96 146.11,312.92 132.83,314.9 C119.54,316.88 102.58,315.18 88.73,305.85 C74.88,296.52 38.41,265.99 20.03,230.65 C1.65,195.31 -0.61,169.58 0.24,140.75 C1.09,111.91 5.04,46.48 12.68,32.47 C19.46,20.03 23.14,17.76 23.14,17.76 Z"/><path fill="url(#f)" d="M85.61,111.34 C85.61,111.34 72.46,96.92 55.5,95.65 C38.54,94.38 30.27,104.56 30.06,105.19 C29.85,105.83 31.33,110.07 35.36,110.91 C39.39,111.77 73.32,115.37 85.61,111.34 Z"/><path fill="#9200CD" d="M85.61,111.34 C73.31,115.37 39.39,111.76 35.36,110.92 C31.33,110.07 29.85,105.83 30.06,105.2 C30.06,105.2 27.94,105.13 25.4,103.43 C22.86,101.73 22.01,92.55 22.01,92.55 C22.01,92.55 21.59,94.39 21.59,97.5 C21.59,100.61 22.58,102.87 23,104.29 C23.42,105.7 20.6,106.41 20.17,106.27 C19.75,106.13 21.58,107.54 23.28,107.82 C24.98,108.1 25.97,109.09 22.71,111.07 C19.46,113.05 12.82,123.93 12.82,123.93 C12.82,123.93 18.9,116.3 22.01,113.89 C25.12,111.49 29.08,111.63 33.46,112.48 C37.84,113.33 44.06,117.29 58.9,117.43 C73.74,117.57 85.9,111.92 85.9,111.92 L85.61,111.34 Z"/><path fill="#000" d="M97.49,90.14 C97.49,90.14 92.19,89.29 85.4,85.05 C78.61,80.81 59.96,68.51 48.51,66.6 C37.06,64.69 26.46,67.02 20.1,71.69 C13.74,76.35 12.89,78.05 12.89,78.05 C12.89,78.05 19.68,60.45 38.97,58.97 C58.26,57.49 78.83,63.85 92.19,72.54 C105.55,81.23 101.52,89.5 97.49,90.14 Z"/><path fill="#9200CD" d="M96.44 58.6C96.44 58.6 96.16 58.44 95.63 58.14 95.1 57.84 94.31 57.41 93.29 56.87 91.26 55.79 88.34 54.3 84.76 52.65 81.18 51.01 76.94 49.21 72.29 47.59 69.97 46.78 67.54 46 65.05 45.34 62.56 44.67 59.99 44.1 57.41 43.7 54.83 43.3 52.21 43.05 49.64 43.08 49 43.11 48.36 43.13 47.73 43.16 47.1 43.21 46.47 43.29 45.84 43.35 45.22 43.43 44.61 43.56 44 43.66 43.4 43.77 42.78 43.94 42.18 44.07 40.97 44.36 39.78 44.62 38.64 44.94 37.5 45.26 36.37 45.54 35.29 45.89 34.21 46.23 33.15 46.54 32.16 46.92 31.66 47.1 31.16 47.28 30.68 47.45 30.2 47.63 29.73 47.83 29.28 48.01 27.44 48.73 25.82 49.55 24.4 50.31 23.01 51.11 21.82 51.85 20.92 52.58 20.01 53.29 19.35 53.92 18.96 54.4 18.56 54.87 18.4 55.16 18.4 55.16 18.4 55.16 18.55 54.86 18.94 54.38 19.32 53.89 19.97 53.24 20.85 52.49 21.73 51.73 22.91 50.95 24.28 50.1 25.68 49.3 27.29 48.43 29.12 47.64 29.58 47.44 30.04 47.23 30.52 47.03 31 46.84 31.49 46.65 31.99 46.45 32.98 46.04 34.04 45.69 35.11 45.32 36.18 44.93 37.31 44.61 38.46 44.26 39.61 43.89 40.79 43.6 41.98 43.28 42.59 43.13 43.17 42.95 43.81 42.81 44.44 42.69 45.07 42.53 45.71 42.43 46.35 42.35 47 42.24 47.65 42.18 48.3 42.13 48.96 42.09 49.62 42.04 52.26 41.93 54.94 42.1 57.59 42.44 60.24 42.77 62.87 43.28 65.42 43.88 67.98 44.47 70.46 45.19 72.84 45.94 77.61 47.44 81.95 49.14 85.63 50.69 89.31 52.25 92.32 53.67 94.41 54.71 95.46 55.23 96.27 55.65 96.83 55.94 97.39 56.24 97.69 56.39 97.69 56.39 98.31 56.72 98.55 57.49 98.22 58.11 97.89 58.73 97.12 58.97 96.5 58.64 96.49 58.63 96.48 58.63 96.47 58.62L96.44 58.6zM85.4 85.05C78.61 80.81 59.96 68.51 48.51 66.6 37.06 64.69 26.46 67.02 20.1 71.69 19.51 72.13 18.96 72.54 18.46 72.92 17.29 73.9 16.14 74.97 15.01 76.14 14.57 76.6 34.94 67.02 58.9 76.99 82.86 86.95 100.67 112.61 100.67 112.61 100.67 112.61 99.06 99.49 92.19 88.51 90.26 87.74 87.94 86.63 85.4 85.05z"/><path fill="url(#g)" d="M160.67,111.34 C160.67,111.34 173.82,96.92 190.78,95.65 C207.74,94.38 216.01,104.56 216.22,105.19 C216.43,105.83 214.95,110.07 210.92,110.91 C206.9,111.77 172.97,115.37 160.67,111.34 Z"/><path fill="#2019DC" d="M160.67,111.34 C172.97,115.37 206.89,111.76 210.92,110.92 C214.95,110.07 216.43,105.83 216.22,105.2 C216.22,105.2 218.34,105.13 220.88,103.43 C223.42,101.73 224.27,92.55 224.27,92.55 C224.27,92.55 224.69,94.39 224.69,97.5 C224.69,100.61 223.7,102.87 223.27,104.29 C222.85,105.7 225.67,106.41 226.1,106.27 C226.52,106.13 224.69,107.54 222.99,107.82 C221.3,108.1 220.3,109.09 223.55,111.07 C226.8,113.05 233.45,123.93 233.45,123.93 C233.45,123.93 227.37,116.3 224.26,113.89 C221.15,111.49 217.19,111.63 212.81,112.48 C208.43,113.33 202.21,117.29 187.37,117.43 C172.53,117.57 160.37,111.92 160.37,111.92 L160.67,111.34 Z"/><path fill="#000" d="M148.8,90.14 C148.8,90.14 154.1,89.29 160.89,85.05 C167.68,80.81 186.33,68.51 197.78,66.6 C209.23,64.69 219.83,67.02 226.19,71.69 C232.55,76.35 233.4,78.05 233.4,78.05 C233.4,78.05 226.62,60.45 207.32,58.97 C188.03,57.49 167.46,63.85 154.1,72.54 C140.74,81.23 144.77,89.5 148.8,90.14 Z"/><path fill="#2019DC" d="M148.6 56.38C148.6 56.38 148.9 56.22 149.46 55.93 150.02 55.64 150.83 55.22 151.88 54.7 153.97 53.67 156.98 52.24 160.66 50.68 164.34 49.13 168.68 47.43 173.45 45.93 175.83 45.18 178.31 44.46 180.87 43.87 183.43 43.27 186.05 42.77 188.7 42.43 191.35 42.1 194.03 41.92 196.67 42.03 197.33 42.08 197.99 42.12 198.64 42.17 199.29 42.24 199.94 42.34 200.58 42.42 201.22 42.52 201.85 42.67 202.48 42.8 203.12 42.94 203.7 43.12 204.31 43.27 205.51 43.59 206.69 43.89 207.83 44.25 208.98 44.6 210.11 44.92 211.18 45.31 212.26 45.68 213.31 46.03 214.3 46.44 214.8 46.64 215.29 46.83 215.77 47.02 216.25 47.22 216.71 47.43 217.17 47.63 219 48.41 220.61 49.29 222.01 50.09 223.38 50.94 224.56 51.72 225.44 52.48 226.33 53.23 226.97 53.87 227.35 54.37 227.74 54.85 227.89 55.15 227.89 55.15 227.89 55.15 227.73 54.86 227.33 54.39 226.94 53.91 226.27 53.28 225.37 52.57 224.47 51.84 223.28 51.1 221.89 50.3 220.47 49.55 218.85 48.73 217.01 48 216.55 47.82 216.09 47.62 215.61 47.44 215.13 47.27 214.63 47.09 214.13 46.91 213.13 46.53 212.08 46.22 210.99 45.88 209.91 45.52 208.79 45.24 207.64 44.93 206.5 44.6 205.31 44.34 204.1 44.06 203.5 43.93 202.88 43.76 202.28 43.65 201.67 43.55 201.06 43.42 200.44 43.34 199.81 43.28 199.19 43.2 198.56 43.15 197.92 43.12 197.29 43.1 196.64 43.07 194.07 43.04 191.46 43.29 188.88 43.69 186.29 44.1 183.73 44.67 181.24 45.33 178.74 45.99 176.32 46.77 174 47.58 169.35 49.2 165.11 51 161.53 52.64 157.95 54.29 155.02 55.78 153 56.86 151.99 57.4 151.2 57.83 150.67 58.13 150.14 58.43 149.86 58.59 149.86 58.59L149.84 58.6C149.23 58.95 148.45 58.73 148.11 58.12 147.76 57.51 147.98 56.73 148.59 56.39 148.58 56.39 148.59 56.38 148.6 56.38zM160.89 85.05C167.68 80.81 186.33 68.51 197.78 66.6 209.23 64.69 219.83 67.02 226.19 71.69 226.78 72.13 227.33 72.54 227.83 72.92 229 73.9 230.15 74.97 231.28 76.14 231.72 76.6 211.35 67.02 187.39 76.99 163.43 86.95 145.62 112.61 145.62 112.61 145.62 112.61 147.23 99.49 154.1 88.51 156.02 87.74 158.35 86.63 160.89 85.05z"/><path fill="#9200CD" d="M31.33,143.78 C31.33,134.41 38.92,126.82 48.29,126.82 C57.66,126.82 65.25,134.41 65.25,143.78 C65.25,153.15 57.66,160.74 48.29,160.74 C38.93,160.74 31.33,153.15 31.33,143.78 Z"/><path fill="#2019DC" d="M179.97,143.78 C179.97,134.41 187.56,126.82 196.93,126.82 C206.3,126.82 213.89,134.41 213.89,143.78 C213.89,153.15 206.3,160.74 196.93,160.74 C187.56,160.74 179.97,153.15 179.97,143.78 Z"/><path fill="#9200CD" d="M13.31,160.11 C13.31,160.11 22.2,173.21 40.66,174.95 C63.14,177.07 87.09,160.32 87.09,160.32 C87.09,160.32 75.64,172.83 60.8,177.07 C45.96,181.31 31.54,178.55 30.69,178.98 C29.84,179.4 24.96,183.86 39.6,214.39 C54.23,244.92 70.34,279.06 70.34,279.06 C70.34,279.06 45.96,244.92 33.66,217.15 C21.36,189.37 19.67,177.29 23.69,175.17 C23.7,175.16 14.8,160.74 13.31,160.11 Z"/><path fill="#2019DC" d="M231.7,161.17 C231.7,161.17 222.81,174.27 204.35,176.01 C181.87,178.13 157.92,161.38 157.92,161.38 C157.92,161.38 169.37,173.89 184.21,178.13 C199.05,182.37 213.47,179.61 214.32,180.04 C215.17,180.46 220.05,184.92 205.42,215.45 C190.79,245.98 174.67,280.12 174.67,280.12 C174.67,280.12 199.05,245.98 211.35,218.21 C223.65,190.43 225.34,178.35 221.32,176.23 C221.32,176.22 230.22,161.8 231.7,161.17 Z"/><path fill="#6F02A2" d="M110.85,100.74 C110.85,100.74 108.73,134.45 105.76,138.48 C102.79,142.51 87.31,160.53 87.53,167.1 C87.74,173.67 91.98,180.46 91.98,180.46 C91.98,180.46 88.37,170.49 92.62,164.98 C96.86,159.47 105.55,148.02 105.98,151.83 C106.4,155.65 102.37,170.91 105.56,177.06 C108.74,183.21 119.34,187.45 122.73,187.03 C126.12,186.61 135.24,183.85 138.42,178.55 C141.6,173.25 140.96,168.58 139.9,161.8 C138.84,155.02 137.57,150.35 139.9,151.41 C142.23,152.47 153.26,163.71 153.89,169.22 C154.53,174.73 153.04,181.09 153.04,181.09 C153.04,181.09 159.4,172.61 156.43,164.13 C153.46,155.65 138.62,140.17 137.77,134.02 C136.92,127.87 135.01,101.15 134.8,101.79 C134.59,102.43 131.83,135.71 133.1,152.04 C134.37,168.37 137.55,175.79 132.25,179.39 C126.95,183 120.8,181.3 116.35,180.24 C111.9,179.18 108.29,176 109.99,166.88 C111.69,157.78 113.6,111.34 110.85,100.74 Z"/><path fill="#231F20" d="M96.22 181.1C96.22 181.1 100.88 185.98 103.85 186.83 106.82 187.68 107.03 183.23 103 181.74 98.97 180.25 96.22 181.1 96.22 181.1zM148.67 181.1C148.67 181.1 144 185.98 141.04 186.83 138.07 187.68 137.86 183.23 141.89 181.74 145.92 180.25 148.67 181.1 148.67 181.1zM131.79 228.76C128.66 228.76 125.35 228.71 121.85 228.59 88.64 227.48 73.79 223.92 73.69 223.88 73.25 223.73 73.01 223.25 73.15 222.81 73.3 222.37 73.77 222.13 74.22 222.27 74.4 222.32 89.33 225.81 121.9 226.89 153.22 227.93 169.63 223.78 169.79 223.74 170.24 223.62 170.71 223.89 170.82 224.35 170.94 224.8 170.67 225.27 170.21 225.38 170.07 225.43 156.89 228.76 131.79 228.76z"/><path fill="#231C29" d="M120.98,251.55 C115.47,251.55 110.7,251.1 106.81,250.5 C95.53,248.77 89.12,245.56 88.86,245.42 C88.23,245.1 87.98,244.33 88.3,243.71 C88.62,243.08 89.38,242.83 90.01,243.15 C90.12,243.21 96.45,246.35 107.32,248 C117.39,249.53 133.55,250.07 153.3,243.92 C153.97,243.71 154.68,244.09 154.89,244.76 C155.1,245.43 154.73,246.14 154.06,246.35 C141.39,250.29 130.15,251.55 120.98,251.55 Z"/><path fill="#000" d="M130.56 260.61C131.15 257.06 133.08 252.9 134.2 250.7 129.43 251.31 125.01 251.55 120.98 251.55 116.58 251.55 112.67 251.26 109.28 250.84 110.98 253.44 113.48 258.49 112.33 264.43 110.63 273.12 106.82 279.27 108.09 289.66 109.36 300.05 113.18 320.41 115.3 321.47 117.42 322.53 127.6 322.74 129.08 318.71 130.56 314.68 136.08 288.81 135.02 282.24 133.96 275.67 129.72 265.7 130.56 260.61zM47.87 179.19C47.87 179.19 60.38 203.15 64.41 204 68.44 204.85 92.4 204.85 98.34 201.67 104.28 198.49 104.49 193.19 108.73 190.43 112.97 187.67 119.33 191.49 122.09 191.91L122.09 203.57C122.09 203.57 112.12 216.08 106.61 217.14 101.1 218.2 71.62 217.14 65.69 216.29 59.75 215.44 52.97 210.57 50.85 206.54 48.73 202.51 35.8 179.19 35.8 179.19L47.87 179.19z"/><path fill="#000" d="M195.87,180.68 C195.87,180.68 183.57,203.15 179.54,204 C175.51,204.85 151.55,204.85 145.61,201.67 C139.67,198.49 139.46,193.19 135.22,190.43 C130.98,187.67 124.62,191.49 121.86,191.91 L121.86,203.57 C121.86,203.57 131.83,216.08 137.34,217.14 C142.85,218.2 172.32,217.14 178.26,216.29 C184.2,215.44 190.98,210.57 193.1,206.54 C195.22,202.51 207.94,180.46 207.94,180.46 L195.87,180.68 Z"/></g></g><g transform="translate(331 195)"><g transform="translate(18 318)"><path fill="url(#h)" d="M18.44,0.93 C18.44,0.93 15.31,9.88 13.3,11.17 C11.29,12.46 1.34,17.41 0.89,19.29 C0.44,21.17 0.44,23.29 0.44,23.29 L0.44,26.35 C0.44,26.35 7.82,28.47 13.41,27.65 C19,26.83 21.57,25.77 24.26,23.06 C26.94,20.35 28.73,19.29 28.73,19.29 L29.18,21.53 L38.46,17.29 L37.79,11.05 L37.12,1.28 C37.11,1.28 32.3,4.58 18.44,0.93 Z"/><path fill="#000" d="M10.83,25.54 C7.48,25.78 2.82,24.47 0.43,23.66 L0.43,26.36 C0.43,26.36 7.81,28.48 13.4,27.66 C18.99,26.84 21.56,25.78 24.25,23.07 C26.93,20.36 28.72,19.3 28.72,19.3 L29.17,21.54 L38.45,17.3 L37.96,12.72 C34.01,14.73 26.66,18.65 23.47,21.42 C19,25.3 14.89,25.25 10.83,25.54 Z"/></g><g transform="translate(91 318)"><path fill="url(#i)" d="M20.47,0.93 C20.47,0.93 23.6,9.88 25.61,11.17 C27.62,12.46 37.58,17.41 38.02,19.29 C38.47,21.17 38.47,23.29 38.47,23.29 L38.47,26.35 C38.47,26.35 31.09,28.47 25.5,27.65 C19.91,26.83 17.34,25.77 14.65,23.06 C11.97,20.35 10.18,19.29 10.18,19.29 L9.73,21.53 L0.45,17.29 L1.12,11.05 L1.79,1.28 C1.79,1.28 6.6,4.58 20.47,0.93 Z"/><path fill="#000" d="M28.07,25.54 C31.42,25.78 36.08,24.47 38.47,23.66 L38.47,26.36 C38.47,26.36 31.09,28.48 25.5,27.66 C19.91,26.84 17.34,25.78 14.65,23.07 C11.97,20.36 10.18,19.3 10.18,19.3 L9.73,21.54 L0.45,17.3 L0.94,12.72 C4.89,14.73 12.24,18.65 15.43,21.42 C19.91,25.3 24.02,25.25 28.07,25.54 Z"/></g><path fill="#000" d="M58.54,52.56 L56.45,45.63 C56.45,45.63 53.1,37.02 52.54,33.89 C51.98,30.76 49.63,19.24 52.99,12.42 C55.2,7.93 61.94,6.61 67.19,6.49 C72,6.39 78.36,8.24 79.71,16.22 C80.83,22.82 81.16,30.09 81.16,33.22 C81.16,36.35 78.59,45.18 78.59,45.18 L76.23,52.77 L67.55,62.04 L58.54,52.56 Z"/><path fill="#FFF" d="M52.48,18.64 C53.7,18.15 53.46,10.34 64.69,11.8 C75.92,13.27 79.83,18.39 82.03,14.49 C84.23,10.58 84.47,10.09 84.47,10.09 C84.47,10.09 81.78,5.94 79.59,4.47 C76.68,2.53 64.69,-1.88 55.66,2.76 C46.62,7.4 48.09,15.95 48.09,15.95"/><path fill="url(#j)" d="M134.06,61.06 C133.17,57.93 97.72,28.86 97.72,28.86 C97.72,28.86 92.91,32.96 91.57,35.35 C90.23,37.74 87.99,43.51 87.99,43.51 L108.41,57.48 C108.41,57.48 88.74,61.22 87.1,60.77 C85.46,60.32 82.33,58.24 82.33,58.24 L76.22,52.57 L72.05,59.43 L67.57,62.05 L63.09,59.43 L58.55,52.72 L52.8,58.24 C52.8,58.24 49.67,60.33 48.03,60.77 C46.39,61.22 28.08,57.72 28.08,57.72 L47.14,43.51 C47.14,43.51 44.9,37.73 43.56,35.35 C42.22,32.96 37.41,28.86 37.41,28.86 C37.41,28.86 1.96,57.93 1.07,61.06 C0.18,64.19 0.4,68.89 2.41,70.68 C4.42,72.47 33.72,85.52 33.72,85.52 C33.72,85.52 38.97,133.19 37.75,135.02 C35.36,138.6 36.18,140.91 36.18,140.91 C36.18,140.91 49.64,144.61 65.42,145.32 L65.42,145.42 C66.15,145.42 66.86,145.41 67.57,145.4 C68.28,145.42 68.99,145.42 69.72,145.42 L69.72,145.32 C85.51,144.61 98.96,140.91 98.96,140.91 C98.96,140.91 99.78,138.6 97.39,135.02 C96.17,133.19 101.42,85.52 101.42,85.52 C101.42,85.52 130.72,72.47 132.73,70.68 C134.73,68.89 134.95,64.19 134.06,61.06 Z"/><path fill="url(#k)" d="M43.2,136.36 C38.54,123.34 33.19,79.21 33.19,79.21 L32.22,84.86 C33.15,85.28 33.69,85.52 33.69,85.52 C33.69,85.52 38.94,133.19 37.72,135.02 C35.33,138.6 36.15,140.91 36.15,140.91 C36.15,140.91 41.58,142.4 49.59,143.67 C49.59,143.66 44.17,139.08 43.2,136.36 Z"/><polyline fill="url(#l)" points="87.99 43.51 111.34 58.94 118.66 60.65"/><polyline fill="url(#m)" points="47.11 43.51 24.88 59.43 17.07 60.89"/><path fill="url(#n)" d="M134.41,66.89 C124.17,73.72 101.82,80.43 101.82,80.43 L101.41,85.51 C101.41,85.51 130.71,72.46 132.72,70.67 C133.62,69.87 134.16,68.47 134.41,66.89 Z"/><path fill="url(#o)" d="M33.19,79.21 C33.19,79.21 8.6,70.89 0.96,68.1 C1.26,69.17 1.73,70.08 2.39,70.68 C4.4,72.47 33.7,85.52 33.7,85.52 L33.19,79.21 Z"/><path fill="#1A0C4D" d="M55.53,42.45 C55.53,42.45 53.32,43.06 52.76,42.16 C52.2,41.27 48.73,35.23 49.52,33.66 C50.3,32.09 52.32,32.09 52.32,32.09 C52.32,32.09 54.75,41.11 55.53,42.45 Z"/><path fill="#FFF" d="M39.9,30.98 C39.57,30.84 42.58,23.71 43.59,22.93 C44.6,22.15 61.37,18.57 62.38,19.13 C63.39,19.69 62.94,21.37 62.94,21.37 C62.94,21.37 56.12,33.11 57.57,33.11 C59.02,33.11 61.15,32.66 62.27,32.1 C63.39,31.54 65.4,30.31 66.63,30.76 C67.86,31.21 67.75,31.88 66.63,33 C65.51,34.12 60.59,37.03 58.24,37.81 C55.89,38.59 52.87,40.05 50.75,40.38 C48.63,40.72 46.39,40.83 46.39,40.83 C46.39,40.83 41.24,31.54 39.9,30.98 Z"/><path fill="url(#p)" d="M38.49,142.32 L39.09,150.67 C39.09,150.67 48.93,154.99 66.67,154.99 C84.41,154.99 97.83,150.67 97.83,150.67 L97.68,141.13 C97.68,141.13 73.52,149.48 38.49,142.32 Z"/><path fill="url(#q)" d="M75.61,154.02 C75.61,154.51 75.21,154.91 74.72,154.91 L63.39,154.91 C62.9,154.91 62.5,154.51 62.5,154.02 L62.5,146.12 C62.5,145.63 62.9,145.23 63.39,145.23 L74.72,145.23 C75.21,145.23 75.61,145.63 75.61,146.12 L75.61,154.02 Z"/><path fill="#000" d="M39.08,150.67 C39.08,150.67 36.38,256.61 35.47,272.73 C35.46,272.99 34.98,319.11 34.98,319.11 C34.98,319.11 44.98,322.07 51.31,320.99 C55.45,320.28 55.78,319.58 55.78,319.58 L66.96,195.56 L70.31,195.09 L91.33,319.58 C91.33,319.58 96.92,321.82 103.85,321.23 C106.43,321.01 111.79,318.99 111.79,318.99 L97.81,150.66 C97.83,150.67 68.68,159.54 39.08,150.67 Z"/><polygon fill="#FFF" points="52.78 58.23 48.45 60.53 57.79 59.42 67.55 62.04 58.71 52.65"/><polygon fill="#FFF" points="67.68 61.87 76.21 58.83 87.28 60.95 82.34 58.08 76.21 52.56"/><path fill="#1A0C4D" d="M79.71,40.71 C79.58,41.02 81.95,41.38 82.51,39.37 C83.07,37.36 84.3,33.44 83.96,31.99 C83.62,30.54 81.16,30.98 81.16,30.98 C81.16,30.98 80.61,38.59 79.71,40.71 Z"/><path fill="#FFF" d="M95.22,30.98 C95.55,30.84 92.54,23.71 91.53,22.93 C90.52,22.15 73.75,18.57 72.74,19.13 C71.73,19.69 72.18,21.37 72.18,21.37 C72.18,21.37 79,33.11 77.55,33.11 C76.1,33.11 73.97,32.66 72.85,32.1 C71.73,31.54 69.72,30.31 68.49,30.76 C67.26,31.21 67.37,31.88 68.49,33 C69.61,34.12 74.53,37.03 76.88,37.81 C79.23,38.59 82.25,40.05 84.37,40.38 C86.49,40.72 88.73,40.83 88.73,40.83 C88.73,40.83 93.87,31.54 95.22,30.98 Z"/><path fill="url(#r)" d="M73.6,21.18 L68.98,23.12 C68.98,23.12 68.31,25.21 68.31,26.85 C68.31,28.49 68.83,30.8 68.83,30.8 L77.55,33.11 C77.55,33.11 70.24,29.08 73.6,21.18 Z"/><path fill="url(#s)" d="M61.67,21.18 L66.29,23.12 C66.29,23.12 66.96,25.21 66.96,26.85 C66.96,28.49 66.44,30.8 66.44,30.8 L57.72,33.11 C57.72,33.11 65.02,29.08 61.67,21.18 Z"/><rect width="4.77" height="7.6" x="65.32" y="22.67" fill="url(#t)"/><path fill="url(#u)" d="M65.32,24.98 C65.32,23.75 66.32,22.74 67.56,22.74 C68.79,22.74 69.8,23.74 69.8,24.98 C69.8,26.22 68.8,27.22 67.56,27.22 C66.32,27.22 65.32,26.22 65.32,24.98 Z"/><path fill="url(#v)" d="M36.32,26.04 C36.32,18.74 42.24,12.82 49.54,12.82 C56.84,12.82 62.77,18.74 62.77,26.04 C62.77,33.34 56.85,39.27 49.54,39.27 C42.24,39.26 36.32,33.34 36.32,26.04 Z"/><path fill="url(#w)" d="M39.73,26.04 C39.73,20.62 44.12,16.23 49.54,16.23 C54.96,16.23 59.35,20.62 59.35,26.04 C59.35,31.46 54.96,35.85 49.54,35.85 C44.12,35.85 39.73,31.46 39.73,26.04 Z"/><path fill="url(#x)" d="M72.62,26.85 C72.62,19.55 78.54,13.63 85.84,13.63 C93.14,13.63 99.07,19.55 99.07,26.85 C99.07,34.15 93.15,40.08 85.84,40.08 C78.54,40.08 72.62,34.16 72.62,26.85 Z"/><path fill="url(#y)" d="M76.04,26.85 C76.04,21.43 80.43,17.04 85.85,17.04 C91.27,17.04 95.66,21.43 95.66,26.85 C95.66,32.27 91.27,36.66 85.85,36.66 C80.43,36.66 76.04,32.27 76.04,26.85 Z"/><polyline fill="url(#z)" points="67.68 61.87 70.28 87.49 67.95 119.43 70.88 144.82 67.55 145.39 64.63 119.4 66.97 87.84 64.36 61.14 67.68 61.87"/></g><g transform="translate(516 200)"><g transform="translate(0 5)"><path fill="#000" d="M46.25,302.73 C46.25,302.73 44.97,308.45 44.97,310.55 C44.97,312.65 45.67,318.37 45.67,318.37 L55.59,318.14 L56.06,315.69 L58.86,318.37 L86.63,318.14 C86.63,318.14 86.16,313.82 83.13,312.66 C80.1,311.49 74.85,312.19 71.81,310.44 C68.78,308.69 57.86,301.47 57.86,301.47 L46.25,302.73 Z"/><path fill="#FFF" d="M31.47,52.79 C31.47,52.79 23.15,45.87 21.98,41.74 C20.81,37.62 21.75,34.43 21.75,34.43 C21.75,34.43 19.57,26.96 23.46,22.45 C27.35,17.94 35.75,15.76 41.2,16.93 C46.64,18.1 52.56,21.6 54.19,21.29 C55.82,20.98 55.98,20.05 55.98,20.05 C55.98,20.05 56.91,28.68 52.01,28.76 C47.11,28.84 41.9,28.76 40.11,29.54 C38.32,30.32 37.08,30.86 37.08,30.86 C37.08,30.86 37.47,34.28 37,36.07 C36.53,37.86 35.83,38.64 35.83,38.64 C35.83,38.64 32.17,35.45 30.31,35.92 C28.44,36.39 25.95,40.43 28.44,43.15 C30.93,45.87 33.73,46.34 33.73,46.34 L31.47,52.79 Z"/><path fill="#000" d="M56.2 38.25C56.2 38.25 56.28 37.94 55.34 34.05 54.41 30.16 52 28.76 52 28.76 47.1 28.84 41.89 28.76 40.1 29.54 38.31 30.32 37.07 30.86 37.07 30.86 37.07 30.86 37.46 34.28 36.99 36.07 36.52 37.86 35.82 38.64 35.82 38.64 35.82 38.64 32.16 35.45 30.3 35.92 28.43 36.39 25.94 40.43 28.43 43.15 30.92 45.87 33.72 46.34 33.72 46.34L31.46 52.8C31.46 52.8 30.99 57.78 30.92 58.09 30.84 58.4 34.03 58.17 37.38 58.56 40.72 58.95 50.29 61.44 50.29 61.44L49.9 58.64C49.9 58.64 57.45 58.8 58.53 58.1 59.62 57.4 58.06 47.68 58.06 47.68 58.06 47.68 62.11 45.89 62.42 45.42 62.74 44.94 56.2 38.25 56.2 38.25zM79.5 45.55C79.5 45.55 76.76 42.21 74.57 41.94 72.37 41.67 69.64 41.9 69.23 41.03 68.82 40.16 66.7 35.59 66.23 34.81 65.76 34.03 62.73 30.83 63.29 30.08 63.85 29.33 66.71 30.5 68.72 32.24 70.74 33.98 73.55 37.3 74.66 37.31 75.77 37.32 88.1 34.68 88.1 34.68 88.1 34.68 89.28 37.77 89.39 39.1 89.5 40.43 91.13 43.03 91.13 43.03L79.5 45.55z"/><path fill="#FFF" d="M112.22,37.61 C111.87,37.58 113.64,35.02 113.64,35.02 C113.64,35.02 117.68,35.2 120.93,36.57 C124.18,37.94 124.160001,39.01 124.160001,39.01 C124.160001,39.01 123.02,42.81 123.07,42.44 C123.12,42.08 119.39,38.31 112.22,37.61 Z"/><polygon fill="#FFF" points="80.18 48.71 78.87 45.76 91.89 43.02 93.22 45.48"/><path fill="url(#A)" d="M188.34,0.27 C188.34,0.27 190.81,1.91 192.08,5.83 C193.34,9.74 191.22,13.38 191.22,13.38 L60.55,40.05 C60.55,40.05 56.22,38.66 56.54,34.31"/><path fill="url(#B)" d="M130.64,13.92 L85.62,25.42 C85.62,25.42 84.8,27.39 86.61,33.8 C87.03,35.3 87.76,35.2800069 87.76,35.2800069 L132.94,26.24 C132.94,26.25 130.48,16.72 130.64,13.92 Z"/><path fill="url(#C)" d="M127.2,14.8 C127.47,17.72 128.14,22.66 129.78,26.88 L132.94,26.25 C132.94,26.25 130.48,16.72 130.64,13.93 L127.2,14.8 Z"/><path fill="#000" d="M74.17 37.18C74.17 37.18 67.59 31.68 67.95 29.94 68.31 28.2 70.98 28.06 70.98 28.06 70.98 28.06 72.81 26.11 74.18 26.23 75.55 26.35 75.55 27.14 75.55 27.14 75.55 27.14 76.26 25.17 77.53 25.15 78.8 25.13 78.97 26.37 78.97 26.37 78.97 26.37 80.11 24.55 81.9 24.75 83.69 24.95 84.4 26.94 84.4 26.94 84.4 26.94 83.09 28.71 83.32 29.86 83.55 31 85.37 34.52 84.99 35 84.62 35.47 79.22 38.62 74.17 37.18zM113.61 34.82C113.61 34.82 114.7 31.96 114.48 31.26 114.26 30.56 109.72 25.77 109.56 23.41 109.4 21.05 110.77 17.22 111.52 16.98 112.27 16.75 113.11 16.58 113.11 16.58 113.11 16.58 116.23 14.71 118.06 14.34 119.89 13.97 122.18 13.92 122.18 13.92 122.18 13.92 125.01 13.76 125.65 14.21 126.3 14.66 126.3 14.66 126.3 14.66 126.3 14.66 125.21 21.08 125.3 22.71 125.39 24.35 126.87 27.35 126.8 28.19 126.73 29.03 124.02 34.87 124.02 34.87 124.02 34.87 123.67 38.25 123.62 38.01 123.56 37.78 120.31 35.79 113.61 34.82z"/><path fill="url(#D)" d="M59.29,67.32 L86.06,63.71 L79.52,48.96 L94.11,45.19 L100.97,56.78 L93.65,70.87 L64.51,71.98 C64.51,71.98 60.8,68.32 59.29,67.32 Z"/><path fill="url(#E)" d="M25.95,58.24 C25.95,58.24 39.02,57.31 48.98,61.04 C58.94,64.77 64.69,73.33 64.69,73.33 C64.69,73.33 72.31,91.69 73.56,96.36 C74.81,101.03 80.56,122.34 80.56,124.67 C80.56,127 80.87,156.72 80.4,158.74 C79.93,160.76 78.07,162.78 78.07,162.78 L30.15,166.67 C30.15,166.67 34.04,144.11 34.04,141 C34.04,137.89 33.11,129.02 32.64,126.38 C32.17,123.74 19.88,80.33 19.88,78.93 C19.88,77.53 25.95,63.99 25.95,63.99 L25.95,58.24 L25.95,58.24 Z"/><path fill="url(#F)" d="M80.6,131.75 C80.57,128.07 80.55,125.31 80.55,124.67 C80.55,122.34 74.79,101.02 73.55,96.36 C72.31,91.69 64.68,73.33 64.68,73.33 C64.68,73.33 58.92,64.77 48.97,61.04 C39.01,57.31 25.94,58.24 25.94,58.24 L25.94,64 C25.94,64 40.56,64.47 48.03,68.04 C55.5,71.62 63.59,88.58 66.86,96.36 C70.13,104.14 80.4,131.99 80.4,131.99 C80.4,131.99 80.47,131.9 80.6,131.75 Z"/><path fill="url(#G)" d="M41.39,73.78 C41.39,73.78 53.93,72.21 62.17,72.13 C70.41,72.06 93.66,70.87 93.66,70.87 C93.66,70.87 102.55,53.53 106.02,47.12 C109.49,40.71 112.24,37.62 112.24,37.62 C112.24,37.62 116.72,38.78 119.28,39.69 C121.84,40.6 123.09,42.45 123.09,42.45 C123.09,42.45 113.26,75.97 111.4,79.36 C109.54,82.75 104.03,86.08 100.3,87.31 C96.58,88.54 70.41,93.33 60.37,93.92 C50.33,94.51 43.47,93.52 43.47,93.52 C43.47,93.52 37.82,87.52 37.93,81.78 C38.03,76.04 41.39,73.78 41.39,73.78 Z"/><path fill="#FFF" d="M95.32,72.42 L112.9,38.08 L112.2,37.64 C111.94,37.94 109.3,41.03 106.01,47.11 C102.54,53.52 93.65,70.86 93.65,70.86 C93.65,70.86 70.4,72.05 62.16,72.12 C53.92,72.19 41.38,73.77 41.38,73.77 C41.38,73.77 41.18,73.9 40.89,74.18 C46.16,73.9 95.32,72.42 95.32,72.42 Z" opacity=".5"/><path fill="#000" d="M33.72,166.36 C33.72,166.98 35.59,169.47 36.83,171.03 C38.07,172.59 38.7,173.05 38.7,173.05 L45.24,229.99 C45.24,229.99 43.53,240.88 43.84,253.95 C44.15,267.02 44.93,302.96 44.93,302.96 L60.8,302.18 C60.8,302.18 67.65,237.93 68.89,232.17 C70.13,226.41 71.22,207.28 72.31,191.41 C73.4,175.54 73.4,162.78 73.4,162.78 L33.72,166.36 Z"/><path fill="#000" d="M38.7,173.05 C38.23,173.67 30.61,223.92 29.37,227.19 C28.13,230.46 15.37,257.84 13.03,264.84 C10.7,271.84 5.87,296.73 5.87,296.73 C5.87,296.73 20.96,300.93 20.96,300.46 C20.96,299.99 31.54,268.72 37.14,260.17 C42.74,251.61 43.83,250.37 43.83,250.37 C43.83,250.37 43.99,240.26 44.61,235.12 C45.23,229.99 45.39,229.52 45.39,229.52 L38.7,173.05 Z"/><path fill="#000" d="M6.93,297.01 C6.93,297.01 2.96,303.43 2.15,305.53 C1.33,307.63 0.52,311.83 0.52,311.83 L10.91,315.1 L13.24,312.77 L12.42,315.34 C12.42,315.34 20.24,318.37 22.1,318.49 C23.97,318.61 41.47,318.14 41.47,318.14 C41.47,318.14 42.05,314.06 37.15,312.07 C32.25,310.09 30.03,311.84 26.65,309.62 C23.27,307.4 18.72,300.17 18.72,300.17 L6.93,297.01 Z"/></g><g transform="translate(130)"><path fill="url(#H)" d="M0.48,16.79 C0.48,16.79 0.23,19.5 1.47,25.42 C2.7,31.33 3.93,33.8 3.93,33.8 L66.53,23.45 C66.53,23.45 69.25,18.83 67.27,10.39 C65.38,2.34 62.34,0.04 62.34,0.04 L0.48,16.79 Z"/><path fill="url(#I)" d="M64.73,23.74 L66.53,23.44 C66.53,23.44 69.25,18.82 67.27,10.38 C65.38,2.33 62.34,0.03 62.34,0.03 L59.9,0.69 C62.16,3.71 66.52,11.36 64.73,23.74 Z"/></g></g><g transform="translate(0 278)"><g fill="#000" transform="translate(101 141)"><path d="M139.45,20.34 C139.45,20.34 138.23,32.89 135.17,36.56 C132.11,40.23 128.44,46.05 121.7,45.44 C114.97,44.83 53.46,30.34 53.46,30.34 L52.03,99.09 C52.03,99.09 38.57,100.31 33.67,99.9 C28.77,99.49 25.31,97.66 25.31,97.66 C25.31,97.66 23.07,19.32 23.47,17.08 C23.88,14.83 31.22,0.76 37.14,0.96 C43.05,1.16 139.45,20.34 139.45,20.34 Z"/><path d="M26.98 98.22C26.98 98.22 18.56 104.19 13.51 105.26 8.46 106.33 2.65 107.55 1.42 109.24.2 110.92 1.11 113.68 1.11 113.68 1.11 113.68 25.29 116.59 32.17 116.43 39.06 116.28 40.43 115.82 40.43 115.82L42.73 112.91 42.58 116.12 54.82 115.66C54.82 115.66 55.13 108.47 54.06 105.26 52.99 102.05 51.46 99.14 51.46 99.14 51.46 99.14 33.72 102.04 26.98 98.22zM89.72 38.7C89.72 38.7 84.98 99.75 85.44 101.59 85.9 103.43 90.03 111.23 94.47 112.3 98.91 113.37 175.41 113.06 175.41 112.61 175.41 112.15 175.26 101.59 175.26 95.78 175.26 89.97 174.34 87.06 174.34 87.06L111.76 89.66C111.76 89.66 119.26 66.56 121.09 58.75 122.93 50.95 124 45.59 124 45.59 124 45.59 116.49 44.36 89.72 38.7z"/><path d="M174.33,87.05 C174.26,86.03 178.31,82.61 180.6,80.47 C182.89,78.33 185.65,77.56 185.65,77.56 L194.22,89.8 C194.22,89.8 195.75,94.7 199.12,98.98 C202.49,103.27 210.44,117.04 210.6,118.26 C210.75,119.48 206.77,123.46 201.27,120.71 C195.76,117.96 183.21,105.41 180.31,104.95 C177.4,104.49 175.72,104.18 175.72,104.18 C175.72,104.18 174.64,91.79 174.33,87.05 Z"/></g><path fill="#FFF" d="M207.91,41.43 C207.91,41.43 215.12,30.42 215,25.22 C214.89,20.01 212.67,16.64 212.67,16.64 C212.67,16.64 212.54,7.19 206.42,3.33 C200.29,-0.53 189.76,-0.07 183.84,3.23 C177.93,6.53 172.31,12.7 170.3,12.92 C168.29,13.14 167.78,12.11 167.78,12.11 C167.78,12.11 169.77,22.48 175.49,20.82 C181.21,19.16 187.24,17.22 189.6,17.48 C191.96,17.75 193.6,17.94 193.6,17.94 C193.6,17.94 194.37,22.06 195.55,23.97 C196.73,25.88 197.82,26.54 197.82,26.54 C197.82,26.54 200.93,21.53 203.27,21.41 C205.6,21.29 209.94,25.1 208.02,29.15 C206.1,33.2 203.01,34.74 203.01,34.74 L207.91,41.43 Z"/><path fill="#000" d="M173.98 33.34C173.98 33.34 173.78 33.01 173.48 28.15 173.18 23.3 175.48 20.81 175.48 20.81 181.2 19.15 187.23 17.21 189.59 17.47 191.95 17.74 193.59 17.93 193.59 17.93 193.59 17.93 194.36 22.05 195.54 23.96 196.72 25.87 197.81 26.53 197.81 26.53 197.81 26.53 200.92 21.52 203.26 21.4 205.59 21.28 209.93 25.09 208.01 29.14 206.09 33.19 203 34.73 203 34.73L207.92 41.43C207.92 41.43 210.24 47.05 210.44 47.38 210.64 47.71 206.85 48.58 203.1 50.22 199.35 51.86 189.12 58.16 189.12 58.16L188.57 54.77C188.57 54.77 179.86 57.64 178.34 57.21 176.83 56.78 175.17 44.93 175.17 44.93 175.17 44.93 169.83 44.29 169.3 43.86 168.77 43.44 173.98 33.34 173.98 33.34zM145.31 57.55C145.31 57.55 146.3 52.4 148.49 50.84 150.68 49.28 153.73 47.95 153.67 46.78 153.61 45.61 153.22 39.5 153.28 38.4 153.34 37.3 154.72 32.13 153.68 31.65 152.64 31.18 150.27 34.08 149.12 37.1 147.97 40.12 146.89 45.3 145.7 45.96 144.52 46.62 129.82 50.93 129.82 50.93 129.82 50.93 130.35 54.92 131 56.4 131.65 57.88 131.41 61.62 131.41 61.62L145.31 57.55z"/><path fill="#FFF" d="M105.75,67.99 C106.1,67.75 102.73,66.05 102.73,66.05 C102.73,66.05 98.51,68.58 95.83,71.92 C93.15,75.26 93.79,76.4 93.79,76.4 C93.79,76.4 97.21,79.8 96.95,79.44 C96.69,79.08 98.5,72.89 105.75,67.99 Z"/><polygon fill="#FFF" points="146.42 61.31 146.11 57.4 130.61 62.01 130.62 65.41"/><path fill="url(#J)" d="M170.99,30.2 L10.42,70.07 C10.42,70.07 8.73,73.26 9.64,78.17 C10.55,83.08 14.93,85.75 14.93,85.75 L170.02,38.66 C170.02,38.65 173.84,34.66 170.99,30.2 Z"/><path fill="url(#K)" d="M79.67,66.96 L131.63,50.79 C131.63,50.79 132.47,48.43 129.97,41.05 C129.38,39.32 128.54,39.39 128.54,39.39 L76.24,52.68 C76.24,52.68 79.7,63.68 79.67,66.96 Z"/><path fill="url(#L)" d="M80.43,51.62 L76.24,52.68 C76.24,52.68 79.7,63.68 79.67,66.95 L83.8,65.66 C83.74,59.08 81.84,54.28 80.43,51.62 Z"/><path fill="#000" d="M146.17 45.52C146.17 45.52 150.02 35.84 148.63 34.19 147.23 32.54 144.3 33.94 144.3 33.94 144.3 33.94 141.21 32.91 139.82 33.83 138.42 34.75 138.88 35.6 138.88 35.6 138.88 35.6 136.98 33.91 135.61 34.62 134.25 35.33 134.78 36.75 134.78 36.75 134.78 36.75 132.51 35.47 130.71 36.71 128.91 37.95 129.3 40.5 129.3 40.5 129.3 40.5 131.72 41.64 132.14 42.99 132.56 44.34 132.65 49.16 133.33 49.45 134.02 49.74 141.61 49.98 146.17 45.52zM102.73 66.05C102.73 66.05 99.95 63.74 99.79 62.9 99.63 62.06 101.79 54.58 100.62 52.06 99.45 49.55 95.82 46.41 94.89 46.6 93.96 46.79 92.96 47.09 92.96 47.09 92.96 47.09 88.57 46.95 86.4 47.62 84.23 48.28 81.75 49.54 81.75 49.54 81.75 49.54 78.63 50.99 78.2 51.82 77.76 52.65 77.76 52.65 77.76 52.65 77.76 52.65 82.55 58.6 83.37 60.32 84.2 62.04 84.31 65.96 84.86 66.79 85.41 67.61 91.61 72.04 91.61 72.04 91.61 72.04 93.89 75.3 93.81 75.02 93.73 74.74 96.09 70.86 102.73 66.05z"/><path fill="url(#M)" d="M179.51,69.12 L148.82,80.75 L147.28,61.2 L129.5,65.61 L128.88,81.97 L144.85,92.8 L176.63,77.13 C176.62,77.12 178.48,71.07 179.51,69.12 Z"/><path fill="url(#N)" d="M216.26,45.79 C216.26,45.79 200.74,49.36 190.5,57.24 C180.26,65.12 176.62,77.12 176.62,77.12 C176.62,77.12 174.3,101.17 174.52,107.03 C174.74,112.9 175.64,139.71 176.47,142.42 C177.3,145.13 187.52,179.77 188.79,181.95 C190.05,184.13 192.94,185.82 192.94,185.82 L250,173.28 C250,173.28 237.45,148.45 236.34,144.84 C235.23,141.23 233.16,130.59 232.76,127.35 C232.36,124.11 231.18,69.3 230.68,67.67 C230.18,66.04 218.31,52.48 218.31,52.48 L216.26,45.79 Z"/><path fill="url(#O)" d="M178.94,150.68 C177.66,146.39 176.7,143.18 176.47,142.43 C175.64,139.72 174.74,112.9 174.52,107.04 C174.3,101.17 176.62,77.13 176.62,77.13 C176.62,77.13 180.26,65.14 190.5,57.25 C200.74,49.36 216.26,45.8 216.26,45.8 L218.31,52.49 C218.31,52.49 201.48,58.24 194.08,65.06 C186.68,71.88 183.32,94.46 182.29,104.67 C181.26,114.87 179.25,150.89 179.25,150.89 C179.25,150.89 179.14,150.8 178.94,150.68 Z"/><path fill="url(#P)" d="M202.38,65.67 C202.38,65.67 188.07,71.24 179.22,75.93 C170.37,80.62 144.84,92.8 144.84,92.8 C144.84,92.8 125.31,79.41 117.89,74.56 C110.47,69.71 105.74,68 105.74,68 C105.74,68 101.62,71.83 99.41,74.29 C97.2,76.75 96.94,79.45 96.94,79.45 C96.94,79.45 126.84,109.59 130.79,112.14 C134.74,114.69 142.56,115.06 147.25,114.22 C151.93,113.38 182.68,103.36 193.75,98.19 C204.82,93.02 211.58,87.98 211.58,87.98 C211.58,87.98 214.15,78.29 210.71,72.23 C207.27,66.14 202.38,65.67 202.38,65.67 Z"/><path fill="#FFF" d="M127.42,82.89 C142.04,93.47 144.74,95.59 145.51,95.21 C146.28,94.83 200.74,66.54 200.74,66.54 L200.18,66.55 C195.82,68.3 185.95,72.37 179.23,75.94 C170.38,80.63 144.85,92.81 144.85,92.81 C144.85,92.81 125.32,79.42 117.9,74.57 C110.48,69.72 105.75,68.01 105.75,68.01 L105.67,68.67 C105.67,68.65 112.79,72.31 127.42,82.89 Z" opacity=".5"/><g transform="translate(0 50)"><path fill="url(#Q)" d="M74.61,0.02 C74.61,0.02 76.37,2.68 78.37,9.47 C80.37,16.26 80.46,19.48 80.46,19.48 L10.11,43.43 C10.11,43.43 4.75,40.16 2.12,30.35 C-0.38,20.99 1.48,16.94 1.48,16.94 L74.61,0.02 Z"/><path fill="url(#R)" d="M12.13,42.75 L10.11,43.44 C10.11,43.44 4.75,40.17 2.12,30.36 C-0.38,21 1.48,16.95 1.48,16.95 L4.37,16.28 C3.7,20.65 3.44,30.96 12.13,42.75 Z"/></g></g></g></svg>